<svg viewBox="0 0 140 140" height="140" width="140" xmlns="http://www.w3.org/2000/svg"><g transform="matrix(10,0,0,10,0,0)"><path d="M13,9.5a1,1,0,0,0-1,1v1a.5.5,0,0,1-1,0v-6A5.507,5.507,0,1,0,9,9.739V11.5a2.5,2.5,0,0,0,5,0v-1A1,1,0,0,0,13,9.5ZM2.5,6.5a1,1,0,1,1,1-1A1,1,0,0,1,2.5,6.5Zm3,3a1,1,0,1,1,1-1A1,1,0,0,1,5.5,9.5Zm0-6a1,1,0,1,1,1-1A1,1,0,0,1,5.5,3.5Zm3,3a1,1,0,1,1,1-1A1,1,0,0,1,8.5,6.5Z" fill="#ffffff" stroke="none" stroke-linecap="round" stroke-linejoin="round" stroke-width="0"></path></g></svg>